<svg width="43" height="26" viewBox="0 0 43 26" fill="none" xmlns="http://www.w3.org/2000/svg">
<path d="M39.5166 3.89674C38.4095 2.71134 37.0737 1.76602 35.5097 1.05932C33.9447 0.354074 32.2122 0 30.3113 0C28.9862 0 27.7533 0.180176 26.5996 0.514444V2.30993C27.7266 1.90369 28.9361 1.68825 30.2394 1.68825C31.8034 1.68825 33.247 1.98774 34.5711 2.58575C35.8943 3.18425 37.0315 3.99238 37.9827 5.01016C38.9329 6.02746 39.6788 7.22445 40.2206 8.60065C40.7616 9.97733 41.033 11.4443 41.033 12.9998V13.0722C41.033 14.6286 40.7674 16.0884 40.2381 17.453C39.7089 18.8181 38.9689 20.0093 38.0186 21.0261C37.0674 22.0443 35.9365 22.8462 34.625 23.4326C33.3135 24.0195 31.8753 24.3122 30.3113 24.3122C28.9857 24.3122 27.7519 24.0842 26.5996 23.6543V25.5025C27.73 25.8247 28.9381 26 30.2394 26C32.1399 26 33.8792 25.6464 35.4553 24.9412C37.0315 24.2349 38.3736 23.2829 39.4802 22.0859C40.5872 20.8884 41.4481 19.5064 42.0614 17.9379C42.6752 16.37 42.982 14.7238 42.982 12.9998C43.0058 12.9766 43.0058 12.9529 42.982 12.9283C42.982 11.2043 42.681 9.56481 42.0799 8.00843C41.4778 6.45254 40.6232 5.08165 39.5166 3.89674Z" fill="#415077"/>
<path d="M12.7431 24.3122C11.1786 24.3122 9.73458 24.0132 8.41142 23.4147C7.08777 22.8162 5.95058 22.0081 5.00033 20.9903C4.04911 19.9735 3.30329 18.776 2.76188 17.3989C2.22048 16.0227 1.94954 14.5566 1.94954 12.9998V12.9283C1.94954 11.3719 2.21417 9.91164 2.74392 8.54703C3.27318 7.18194 4.01318 5.99171 4.96391 4.97393C5.91465 3.95615 7.04553 3.15478 8.35752 2.56739C9.66854 1.98146 11.1063 1.68825 12.6713 1.68825C14.0187 1.68825 15.2719 1.92446 16.4417 2.36838V0.519275C15.2875 0.181143 14.058 0 12.7431 0C10.8174 0 9.07275 0.35359 7.50875 1.05932C5.94427 1.76602 4.60897 2.71762 3.50188 3.91413C2.3948 5.1116 1.53487 6.49408 0.921113 8.06205C0.307361 9.63051 0 11.2762 0 12.9998V13.0717C0 14.7957 0.301049 16.4357 0.903147 17.992C1.50427 19.5489 2.35887 20.9188 3.46595 22.1037C4.57255 23.2887 5.90251 24.2349 7.45437 24.9412C9.0072 25.6464 10.7455 26 12.6713 26C14.0095 26 15.2637 25.8145 16.4417 25.4648V23.6678C15.2972 24.0886 14.0682 24.3122 12.7431 24.3122Z" fill="#415077"/>
<path d="M17.1423 2.29921L17.1425 2.29932C18.4203 2.8771 19.5266 3.65152 20.4696 4.61037L20.6804 4.82471L20.5003 5.06543C19.8206 5.97413 19.2581 7.10451 18.8193 8.22535C18.2219 9.7522 17.9228 11.3541 17.9228 13.0355V13.1075C17.9228 14.7892 18.2164 16.3868 18.8019 17.9011L18.8019 17.9012C19.2281 19.0048 19.8094 20.2101 20.475 21.0996L20.6566 21.3423L20.4423 21.5567C19.5139 22.4855 18.4349 23.2341 17.1952 23.7888L17.195 23.7889C17.0583 23.8499 16.9189 23.9022 16.787 23.9501V25.0246C17.1134 24.916 17.4316 24.7959 17.7396 24.6584C19.0351 24.0774 20.254 23.2101 21.2281 22.2805L21.4694 22.0502L21.711 22.2802C22.6879 23.2102 23.8827 24.0784 25.1641 24.6614C25.5101 24.8188 25.8719 24.9519 26.2457 25.0707V23.9377C26.1124 23.8888 25.971 23.8354 25.8318 23.7726L25.8315 23.7725C24.5601 23.1976 23.4665 22.4318 22.5273 21.4795L22.316 21.2652L22.4961 21.0242C23.1721 20.1197 23.7252 18.9703 24.1644 17.8478L24.1644 17.8478C24.7619 16.3214 25.0609 14.7181 25.0609 13.0371V12.9657C25.0609 11.2836 24.767 9.68705 24.1824 8.17213L17.1423 2.29921ZM17.1423 2.29921C17.0222 2.24502 16.9005 2.19898 16.787 2.15721V1.02604M17.1423 2.29921L16.787 1.02604M16.787 1.02604C17.1327 1.13896 17.4689 1.26475 17.7929 1.41081C19.1263 2.01345 20.2771 2.80423 21.2678 3.7625L21.5113 3.99808L21.5355 3.97469L21.5441 3.98146L21.7637 3.7677C22.7512 2.80673 23.8968 2.0155 25.2241 1.41583C25.5546 1.26697 25.8986 1.13914 26.253 1.02461V2.10144C26.1009 2.15636 25.9426 2.21577 25.7869 2.28499L25.7861 2.28536C24.5259 2.84949 23.4463 3.77774 22.5377 4.68702L22.3225 4.90237L22.506 5.14531C23.1944 6.05699 23.7538 7.0647 24.1822 8.17184L16.787 1.02604ZM21.4612 6.38655L21.7608 6.20559L21.4595 5.70666L21.1607 6.20715L21.4612 6.38655ZM21.4612 6.38655L21.1607 6.20719L21.1606 6.20727L21.1605 6.20751L21.16 6.20838L21.158 6.21162L21.1507 6.22396L21.123 6.27078C21.0992 6.31134 21.0648 6.36998 21.0227 6.44275C20.9385 6.5882 20.823 6.79056 20.6976 7.01819C20.45 7.46784 20.1535 8.03497 19.9905 8.45595C19.4435 9.86309 19.1718 11.3671 19.1718 12.9635V13.0355C19.1718 14.6335 19.4507 16.1432 20.009 17.5622C20.3396 18.4041 20.7539 19.1721 21.232 19.8818L21.524 20.3151L21.8136 19.8802C22.2766 19.185 22.6758 18.4354 22.9933 17.617L22.9933 17.6169C23.5392 16.2095 23.8114 14.7066 23.8114 13.1091V13.0371C23.8114 11.4402 23.533 9.92953 22.9753 8.51004L22.9752 8.50977C22.8049 8.0775 22.4974 7.49649 22.2405 7.03566C22.1105 6.80256 21.9909 6.59545 21.9037 6.4466C21.86 6.37214 21.8245 6.31215 21.7998 6.27066L21.7711 6.22277L21.7636 6.21015L21.7616 6.20684L21.761 6.20596L21.7609 6.20571L21.7608 6.20563L21.4612 6.38655Z" stroke="#F85731" stroke-width="0.7"/>
</svg>
